<mxfile host="app.diagrams.net" agent="Mozilla/5.0 (Macintosh; Intel Mac OS X 10_15_7) AppleWebKit/537.36 (KHTML, like Gecko) Chrome/128.0.0.0 Safari/537.36" version="24.7.10">
  <diagram name="Page-1" id="oQQ1x_WelAuzs3PXUWHm">
    <mxGraphModel dx="933" dy="504" grid="1" gridSize="10" guides="1" tooltips="1" connect="1" arrows="1" fold="1" page="1" pageScale="1" pageWidth="850" pageHeight="1100" math="0" shadow="0">
      <root>
        <mxCell id="0" />
        <mxCell id="1" parent="0" />
        <mxCell id="f3pMagCcOA8NihflhNLA-7" style="edgeStyle=orthogonalEdgeStyle;rounded=0;orthogonalLoop=1;jettySize=auto;html=1;exitX=0.888;exitY=0.275;exitDx=0;exitDy=0;exitPerimeter=0;entryX=0;entryY=0.276;entryDx=0;entryDy=0;entryPerimeter=0;" parent="1" source="f3pMagCcOA8NihflhNLA-3" edge="1" target="f3pMagCcOA8NihflhNLA-5">
          <mxGeometry relative="1" as="geometry">
            <mxPoint x="280" y="270" as="sourcePoint" />
            <mxPoint x="410" y="270" as="targetPoint" />
            <Array as="points" />
          </mxGeometry>
        </mxCell>
        <mxCell id="f3pMagCcOA8NihflhNLA-12" style="edgeStyle=orthogonalEdgeStyle;rounded=0;orthogonalLoop=1;jettySize=auto;html=1;exitX=0.975;exitY=0.617;exitDx=0;exitDy=0;exitPerimeter=0;" parent="1" source="f3pMagCcOA8NihflhNLA-3" target="f3pMagCcOA8NihflhNLA-5" edge="1">
          <mxGeometry relative="1" as="geometry">
            <Array as="points">
              <mxPoint x="280" y="299" />
              <mxPoint x="280" y="290" />
            </Array>
          </mxGeometry>
        </mxCell>
        <mxCell id="f3pMagCcOA8NihflhNLA-15" value="/Get" style="edgeLabel;html=1;align=center;verticalAlign=middle;resizable=0;points=[];" parent="f3pMagCcOA8NihflhNLA-12" vertex="1" connectable="0">
          <mxGeometry x="0.0143" y="7" relative="1" as="geometry">
            <mxPoint x="-6" y="-3" as="offset" />
          </mxGeometry>
        </mxCell>
        <mxCell id="f3pMagCcOA8NihflhNLA-3" value="Client" style="ellipse;whiteSpace=wrap;html=1;aspect=fixed;" parent="1" vertex="1">
          <mxGeometry x="200" y="250" width="80" height="80" as="geometry" />
        </mxCell>
        <mxCell id="f3pMagCcOA8NihflhNLA-4" value="Stateless" style="text;html=1;align=center;verticalAlign=middle;resizable=0;points=[];autosize=1;strokeColor=none;fillColor=none;" parent="1" vertex="1">
          <mxGeometry x="200" y="178" width="70" height="30" as="geometry" />
        </mxCell>
        <mxCell id="f3pMagCcOA8NihflhNLA-9" style="edgeStyle=orthogonalEdgeStyle;rounded=0;orthogonalLoop=1;jettySize=auto;html=1;exitX=1;exitY=0.25;exitDx=0;exitDy=0;entryX=-0.004;entryY=0.246;entryDx=0;entryDy=0;entryPerimeter=0;" parent="1" source="f3pMagCcOA8NihflhNLA-5" target="f3pMagCcOA8NihflhNLA-6" edge="1">
          <mxGeometry relative="1" as="geometry">
            <mxPoint x="640" y="270" as="targetPoint" />
            <Array as="points">
              <mxPoint x="650" y="270" />
            </Array>
          </mxGeometry>
        </mxCell>
        <mxCell id="f3pMagCcOA8NihflhNLA-5" value="Server" style="whiteSpace=wrap;html=1;aspect=fixed;" parent="1" vertex="1">
          <mxGeometry x="410" y="250" width="80" height="80" as="geometry" />
        </mxCell>
        <mxCell id="f3pMagCcOA8NihflhNLA-10" style="edgeStyle=orthogonalEdgeStyle;rounded=0;orthogonalLoop=1;jettySize=auto;html=1;exitX=0;exitY=0.5;exitDx=0;exitDy=0;exitPerimeter=0;entryX=1;entryY=0.5;entryDx=0;entryDy=0;" parent="1" source="f3pMagCcOA8NihflhNLA-6" target="f3pMagCcOA8NihflhNLA-5" edge="1">
          <mxGeometry relative="1" as="geometry" />
        </mxCell>
        <mxCell id="f3pMagCcOA8NihflhNLA-6" value="State DB" style="shape=cylinder3;whiteSpace=wrap;html=1;boundedLbl=1;backgroundOutline=1;size=15;" parent="1" vertex="1">
          <mxGeometry x="650" y="250" width="60" height="80" as="geometry" />
        </mxCell>
        <mxCell id="f3pMagCcOA8NihflhNLA-8" value="/login" style="text;html=1;align=center;verticalAlign=middle;resizable=0;points=[];autosize=1;strokeColor=none;fillColor=none;" parent="1" vertex="1">
          <mxGeometry x="310" y="240" width="50" height="30" as="geometry" />
        </mxCell>
        <mxCell id="f3pMagCcOA8NihflhNLA-11" value="Store state" style="text;html=1;align=center;verticalAlign=middle;resizable=0;points=[];autosize=1;strokeColor=none;fillColor=none;" parent="1" vertex="1">
          <mxGeometry x="535" y="240" width="80" height="30" as="geometry" />
        </mxCell>
        <mxCell id="f3pMagCcOA8NihflhNLA-13" value="get_state" style="text;html=1;align=center;verticalAlign=middle;resizable=0;points=[];autosize=1;strokeColor=none;fillColor=none;" parent="1" vertex="1">
          <mxGeometry x="525" y="268" width="70" height="30" as="geometry" />
        </mxCell>
        <mxCell id="f3pMagCcOA8NihflhNLA-14" style="edgeStyle=orthogonalEdgeStyle;rounded=0;orthogonalLoop=1;jettySize=auto;html=1;exitX=1;exitY=1;exitDx=0;exitDy=0;" parent="1" source="f3pMagCcOA8NihflhNLA-3" edge="1">
          <mxGeometry relative="1" as="geometry">
            <mxPoint x="410" y="320" as="targetPoint" />
            <Array as="points">
              <mxPoint x="268" y="320" />
            </Array>
          </mxGeometry>
        </mxCell>
        <mxCell id="f3pMagCcOA8NihflhNLA-17" value="/verfy" style="text;html=1;align=center;verticalAlign=middle;resizable=0;points=[];autosize=1;strokeColor=none;fillColor=none;" parent="1" vertex="1">
          <mxGeometry x="310" y="298" width="50" height="30" as="geometry" />
        </mxCell>
        <mxCell id="f3pMagCcOA8NihflhNLA-19" value="update state" style="text;html=1;align=center;verticalAlign=middle;resizable=0;points=[];autosize=1;strokeColor=none;fillColor=none;" parent="1" vertex="1">
          <mxGeometry x="525" y="290" width="90" height="30" as="geometry" />
        </mxCell>
        <mxCell id="ybcZXyHDzSpLGe-zs_JC-1" style="edgeStyle=orthogonalEdgeStyle;rounded=0;orthogonalLoop=1;jettySize=auto;html=1;exitX=1;exitY=0.75;exitDx=0;exitDy=0;entryX=0;entryY=1;entryDx=0;entryDy=-15;entryPerimeter=0;" edge="1" parent="1" source="f3pMagCcOA8NihflhNLA-5" target="f3pMagCcOA8NihflhNLA-6">
          <mxGeometry relative="1" as="geometry">
            <Array as="points">
              <mxPoint x="490" y="315" />
            </Array>
          </mxGeometry>
        </mxCell>
        <mxCell id="ybcZXyHDzSpLGe-zs_JC-3" style="edgeStyle=orthogonalEdgeStyle;rounded=0;orthogonalLoop=1;jettySize=auto;html=1;exitX=0.888;exitY=0.275;exitDx=0;exitDy=0;exitPerimeter=0;entryX=0;entryY=0.276;entryDx=0;entryDy=0;entryPerimeter=0;" edge="1" parent="1" source="ybcZXyHDzSpLGe-zs_JC-6" target="ybcZXyHDzSpLGe-zs_JC-9">
          <mxGeometry relative="1" as="geometry">
            <mxPoint x="280" y="490" as="sourcePoint" />
            <mxPoint x="410" y="490" as="targetPoint" />
            <Array as="points" />
          </mxGeometry>
        </mxCell>
        <mxCell id="ybcZXyHDzSpLGe-zs_JC-4" style="edgeStyle=orthogonalEdgeStyle;rounded=0;orthogonalLoop=1;jettySize=auto;html=1;exitX=0.975;exitY=0.617;exitDx=0;exitDy=0;exitPerimeter=0;" edge="1" parent="1" source="ybcZXyHDzSpLGe-zs_JC-6" target="ybcZXyHDzSpLGe-zs_JC-9">
          <mxGeometry relative="1" as="geometry">
            <Array as="points">
              <mxPoint x="280" y="519" />
              <mxPoint x="280" y="510" />
            </Array>
          </mxGeometry>
        </mxCell>
        <mxCell id="ybcZXyHDzSpLGe-zs_JC-5" value="/Get" style="edgeLabel;html=1;align=center;verticalAlign=middle;resizable=0;points=[];" vertex="1" connectable="0" parent="ybcZXyHDzSpLGe-zs_JC-4">
          <mxGeometry x="0.0143" y="7" relative="1" as="geometry">
            <mxPoint x="-6" y="-3" as="offset" />
          </mxGeometry>
        </mxCell>
        <mxCell id="ybcZXyHDzSpLGe-zs_JC-6" value="Client" style="ellipse;whiteSpace=wrap;html=1;aspect=fixed;" vertex="1" parent="1">
          <mxGeometry x="200" y="470" width="80" height="80" as="geometry" />
        </mxCell>
        <mxCell id="ybcZXyHDzSpLGe-zs_JC-7" value="Stateful" style="text;html=1;align=center;verticalAlign=middle;resizable=0;points=[];autosize=1;strokeColor=none;fillColor=none;" vertex="1" parent="1">
          <mxGeometry x="205" y="398" width="60" height="30" as="geometry" />
        </mxCell>
        <mxCell id="ybcZXyHDzSpLGe-zs_JC-9" value="Server with state" style="whiteSpace=wrap;html=1;aspect=fixed;" vertex="1" parent="1">
          <mxGeometry x="550" y="470" width="80" height="80" as="geometry" />
        </mxCell>
        <mxCell id="ybcZXyHDzSpLGe-zs_JC-12" value="/login" style="text;html=1;align=center;verticalAlign=middle;resizable=0;points=[];autosize=1;strokeColor=none;fillColor=none;" vertex="1" parent="1">
          <mxGeometry x="379" y="460" width="50" height="30" as="geometry" />
        </mxCell>
        <mxCell id="ybcZXyHDzSpLGe-zs_JC-15" style="edgeStyle=orthogonalEdgeStyle;rounded=0;orthogonalLoop=1;jettySize=auto;html=1;exitX=1;exitY=1;exitDx=0;exitDy=0;entryX=0.007;entryY=0.851;entryDx=0;entryDy=0;entryPerimeter=0;" edge="1" parent="1" source="ybcZXyHDzSpLGe-zs_JC-6" target="ybcZXyHDzSpLGe-zs_JC-9">
          <mxGeometry relative="1" as="geometry">
            <mxPoint x="410" y="540" as="targetPoint" />
            <Array as="points">
              <mxPoint x="268" y="540" />
              <mxPoint x="551" y="540" />
            </Array>
          </mxGeometry>
        </mxCell>
        <mxCell id="ybcZXyHDzSpLGe-zs_JC-16" value="/verfy" style="text;html=1;align=center;verticalAlign=middle;resizable=0;points=[];autosize=1;strokeColor=none;fillColor=none;" vertex="1" parent="1">
          <mxGeometry x="379" y="510" width="50" height="30" as="geometry" />
        </mxCell>
      </root>
    </mxGraphModel>
  </diagram>
</mxfile>
